<svg xmlns="http://www.w3.org/2000/svg" width="20" height="20"  viewBox="0 0 20 20" fill="#fff">

  <path d="m 16.931818,3.2954545 c 0,0.3409091 -0.113636,0.6818182 -0.340909,1.0227273 L 15,5.9090909 13.977273,5 l 2.5,-2.5 c 0.340909,0.1136364 0.454545,0.4545455 0.454545,0.7954545 z M 16.363636,9.3181818 H 20 C 20,9.6590909 19.886364,10 19.545455,10.340909 c -0.34091,0.340909 -0.568182,0.454546 -0.909091,0.454546 H 16.363636 Z M 9.3181818,3.6363636 V 0 C 9.6590909,0 10,0.1136364 10.340909,0.45454545 10.681818,0.79545455 10.795455,1.0227273 10.795455,1.3636364 V 3.6363636 Z M 16.590909,16.931818 c -0.340909,0 -0.681818,-0.113636 -0.909091,-0.340909 L 14.090909,15 15,14.090909 l 2.5,2.5 c -0.227273,0.227273 -0.568182,0.340909 -0.909091,0.340909 z M 3.4090909,3.0681818 c 0.3409091,0 0.6818182,0.1136364 0.9090909,0.3409091 L 5.9090909,5 5,6.0227273 2.5,3.4090909 C 2.7272727,3.1818182 3.0681818,3.0681818 3.4090909,3.0681818 Z M 9.3181818,16.363636 H 10.681818 V 20 C 10.340909,20 10,19.886364 9.6590909,19.545455 9.3181818,19.204545 9.2045455,18.977273 9.2045455,18.636364 Z M 1.3636364,9.3181818 H 3.6363636 V 10.681818 H 0 C 0,10.340909 0.1136364,10 0.45454545,9.6590909 0.79545455,9.3181818 1.0227273,9.3181818 1.3636364,9.3181818 Z M 3.4090909,15.681818 5,14.090909 5.9090909,15 l -2.5,2.5 C 3.1818182,17.272727 3.0681818,16.931818 3.0681818,16.590909 c 0,-0.340909 0.1136364,-0.681818 0.3409091,-0.909091 z" />
  <circle cx="10" cy="10" r="4.5" />
</svg>
